# xmcd
#
# Track frame offsets:
#	150
#	7122
#	26000
#	39362
#	56537
#	71695
#	80957
#	97960
#	104702
#	117102
#	125047
#	135265
#	152572
#	155000
#	176400
#	177827
#	190967
#	193352
#	205605
#	220842
#	238547
#	244067
#	249392
#
# Disc length: 3586 seconds
#
# Revision: 0
# Processed by: cddbd v1.5PL3 Copyright (c) Steve Scherf et al.
# Submitted via: dBpowerAMP V4.0
#
DISCID=440e0017
DTITLE=Benzino - The Benzino Project
DYEAR=1900
DGENRE=
TTITLE0=617 Intro
TTITLE1=Who Is Benzino
TTITLE2=Bang Ta Dis
TTITLE3=Feel Your Pain
TTITLE4=We Reppin Y'all
TTITLE5=Halfway
TTITLE6=Figadoh
TTITLE7=Got No Weed
TTITLE8=Nobody Liver
TTITLE9=Phone
TTITLE10=Picture This
TTITLE11=Any Questions
TTITLE12=Road Rage
TTITLE13=Ghetto Child
TTITLE14=JB's Floatin'
TTITLE15=G-A-N-G-S-T-E-R
TTITLE16=Big Trev
TTITLE17=Boottee
TTITLE18=The Jump Up
TTITLE19=Shine Like My Son
TTITLE20=I'm F***ed Up
TTITLE21=Nate's Place
TTITLE22=Throw Them 3's
EXTD=Benzino - The Benzino Project\n
EXTT0=
EXTT1=
EXTT2=
EXTT3=
EXTT4=
EXTT5=
EXTT6=
EXTT7=
EXTT8=
EXTT9=
EXTT10=
EXTT11=
EXTT12=
EXTT13=
EXTT14=
EXTT15=
EXTT16=
EXTT17=
EXTT18=
EXTT19=
EXTT20=
EXTT21=
EXTT22=
PLAYORDER=
